<?xml version='1.0' ?>
<svg viewBox="0 0 1000 773.61461" xmlns="http://www.w3.org/2000/svg" xmlns:xlink="http://www.w3.org/1999/xlink" version="1.1" width="1000" height="773.6146">
  <path fill="#453A62" d="M477.9597,226.7003 L326.8262,0 L213.4761,0 L364.6096,226.7003 L213.4761,453.4006 L326.8262,453.4006 Z" />
  <path fill="#5E5086" d="M635.3904,226.7003 L484.2569,0 L370.9068,0 L522.0403,226.7003 L370.9068,453.4006 L484.2569,453.4006 Z" />
  <path fill="#5E5086" d="M522.0403,226.7003 L673.1738,453.4006 L786.5239,453.4006 L635.3904,226.7003 Z" />
  <path fill="#8F4E8B" d="M50.3778,698.0479 L192.6952,484.5718 L306.0453,484.5718 L163.7279,698.0479 L431.9899,698.0478 L381.6121,773.6146 L0,773.6146 Z" />
  <path fill="#8F4E8B" d="M568.0101,560.1385 L547.2292,591.3098
  L496.8514,666.8766
  L815.4912,666.8766
  L836.2721,698.0479
  L476.0705,698.0478
  L425.6927,773.6146
  L999.9999,773.6146
  L949.6221,698.0478
  L928.8413,666.8766
  L878.4635,591.3098
  L660.5793,591.3098
  L681.3602,560.1385 L857.6826,560.1385 L807.3048,484.5717 L618.3879,484.5717 Z" />
  <defs />
</svg>
