<?xml version='1.0' ?>
<svg viewBox="0 0 1000 734.693878" xmlns="http://www.w3.org/2000/svg" xmlns:xlink="http://www.w3.org/1999/xlink" version="1.1" width="1000" height="734.6939">
  <path fill="#453A62" d="M673.4694,367.3469 l-244.898,-367.3469 h-183.6735 l244.898,367.3469 Z" />
  <path fill="#453A62" d="M591.8367,244.898 l-81.6327,-122.449 h-428.5714 l81.6327,122.449 Z" />
  <path fill="#453A62" d="M428.5714,367.3469 l-244.898,-367.3469 h-183.6735 l244.898,367.3469 Z" />
  <path fill="#5E5086" d="M0,734.6939 l81.6327,-122.449 h408.1633 l-81.6327,122.449 Z" />
  <path fill="#5E5086" d="M0,734.6939 l244.898,-367.3469 h183.6735 l-244.898,367.3469 Z" />
  <path fill="#666666" d="M462.585,489.7959 l-40.8163,-61.2245 h-30.6122 l40.8163,61.2245 l-40.8163,61.2245 h30.6122 Z" />
  <path fill="#8F4E8B" d="M571.4286,489.7959 l81.6327,122.449 h-163.2653 l-81.6327,122.449 h346.9388 l81.6327,-122.449 l-81.6327,-122.449 h163.2653 l81.6327,-122.449 h-346.9388 Z" />
  <path fill="#999999" d="M505.102,489.7959 l-40.8163,-61.2245 h-30.6122 l40.8163,61.2245 l-40.8163,61.2245 h30.6122 Z" />
  <path fill="#999999" d="M474.4898,489.7959 l40.8163,61.2245 h30.6122 l-40.8163,-61.2245 Z" />
  <path fill="#BBBBBB" d="M500,464.2857 l13.6054,20.4082 h54.4218 v-20.4082 Z" />
  <path fill="#BBBBBB" d="M520.4082,494.898 l13.6054,20.4082 h34.0136 v-20.4082 Z" />
  <defs />
</svg>
