<?xml version='1.0' ?>
<svg viewBox="0 0 1000 773.61461" xmlns="http://www.w3.org/2000/svg" xmlns:xlink="http://www.w3.org/1999/xlink" version="1.1" width="1000" height="773.6146">
  <path fill="#453A62" d="M479.9634,241.2554 l-137.3941,-206.0911 h-103.0456 l137.3941,206.0911 l-137.3941,206.0911 h103.0456 Z" />
  <path fill="#5E5086" d="M623.0822,241.2554 l-137.3941,-206.0911 h-103.0456 l137.3941,206.0911 l-137.3941,206.0911 h103.0456 Z" />
  <path fill="#5E5086" d="M520.0366,241.2554 l137.3941,206.0911 h103.0456 l-137.3941,-206.0911 Z" />
  <path fill="#8F4E8B" d="M91.2526,669.7533 l129.3794,-194.0692 h103.0456 l-129.3794,194.0692 h243.8744 l-45.798,68.697 h-346.9201 Z" />
  <path fill="#8F4E8B" d="M561.8274,544.3812 l-18.8918,28.3375 l-45.798,68.697 h289.6725 l18.8917,28.3375 h-327.4559 l-45.798,68.697 h522.0975 l-45.798,-68.697 l-18.8917,-28.3375 l-45.798,-68.6971 h-198.0764 l18.8917,-28.3375 h160.2929 l-45.798,-68.697 h-171.7426 Z" />
  <defs />
</svg>
