<?xml version="1.0" encoding="UTF-8"?>
<!DOCTYPE svg PUBLIC "-//W3C//DTD SVG 1.1//EN"
    "http://www.w3.org/Graphics/SVG/1.1/DTD/svg11.dtd"><svg xmlns="http://www.w3.org/2000/svg" viewBox="0.0 0.0 1000.0 426.13636363636357" height="426.1364" font-size="1" stroke-opacity="1" width="1000.0000" xmlns:xlink="http://www.w3.org/1999/xlink" stroke="rgb(0,0,0)" version="1.1"><defs></defs><g stroke-linecap="butt" fill="rgb(225,37,27)" stroke-miterlimit="10.0" stroke-width="0.0" fill-opacity="1.0" stroke-opacity="1.0" stroke-linejoin="miter" stroke="rgb(0,0,0)"><path d="M 863.6364,174.3285 h 54.7521 c 0.0000,-85.5813 -69.3774,-154.9587 -154.9587 -154.9587c -85.5813,-0.0000 -154.9587,69.3774 -154.9587 154.9587c -0.0000,85.5813 69.3774,154.9587 154.9587 154.9587c 85.5813,0.0000 154.9587,-69.3774 154.9587 -154.9587l -54.7521,-0.0000 c -0.0000,55.3426 -44.8640,100.2066 -100.2066 100.2066c -55.3426,-0.0000 -100.2066,-44.8640 -100.2066 -100.2066c 0.0000,-55.3426 44.8640,-100.2066 100.2066 -100.2066c 55.3426,0.0000 100.2066,44.8640 100.2066 100.2066Z"/></g><g stroke-linecap="butt" fill="rgb(0,15,159)" stroke-miterlimit="10.0" stroke-width="0.0" fill-opacity="1.0" stroke-opacity="1.0" stroke-linejoin="miter" stroke="rgb(0,0,0)"><path d="M 954.5455,205.3202 l -0.0000,-61.9835 h -382.2314 l -0.0000,61.9835 Z"/></g><g stroke-linecap="butt" fill="rgb(143,78,139)" stroke-miterlimit="10.0" stroke-width="0.0" fill-opacity="1.0" stroke-opacity="1.0" stroke-linejoin="miter" stroke="rgb(0,0,0)"><path d="M 427.6860,236.3120 l 41.3223,61.9835 h 103.3058 v -61.9835 Z"/></g><g stroke-linecap="butt" fill="rgb(143,78,139)" stroke-miterlimit="10.0" stroke-width="0.0" fill-opacity="1.0" stroke-opacity="1.0" stroke-linejoin="miter" stroke="rgb(0,0,0)"><path d="M 365.7025,143.3368 l 41.3223,61.9835 h 165.2893 v -61.9835 Z"/></g><g stroke-linecap="butt" fill="rgb(94,80,134)" stroke-miterlimit="10.0" stroke-width="0.0" fill-opacity="1.0" stroke-opacity="1.0" stroke-linejoin="miter" stroke="rgb(0,0,0)"><path d="M 298.5537,220.8161 l 123.9669,185.9504 h 92.9752 l -123.9669,-185.9504 Z"/></g><g stroke-linecap="butt" fill="rgb(94,80,134)" stroke-miterlimit="10.0" stroke-width="0.0" fill-opacity="1.0" stroke-opacity="1.0" stroke-linejoin="miter" stroke="rgb(0,0,0)"><path d="M 391.5289,220.8161 l -123.9669,185.9504 h -92.9752 l 123.9669,-185.9504 Z"/></g><g stroke-linecap="butt" fill="rgb(94,80,134)" stroke-miterlimit="10.0" stroke-width="0.0" fill-opacity="1.0" stroke-opacity="1.0" stroke-linejoin="miter" stroke="rgb(0,0,0)"><path d="M 391.5289,220.8161 l -123.9669,-185.9504 h -92.9752 l 123.9669,185.9504 Z"/></g><g stroke-linecap="butt" fill="rgb(69,58,98)" stroke-miterlimit="10.0" stroke-width="0.0" fill-opacity="1.0" stroke-opacity="1.0" stroke-linejoin="miter" stroke="rgb(0,0,0)"><path d="M 262.3967,220.8161 l -123.9669,185.9504 h -92.9752 l 123.9669,-185.9504 Z"/></g><g stroke-linecap="butt" fill="rgb(69,58,98)" stroke-miterlimit="10.0" stroke-width="0.0" fill-opacity="1.0" stroke-opacity="1.0" stroke-linejoin="miter" stroke="rgb(0,0,0)"><path d="M 262.3967,220.8161 l -123.9669,-185.9504 h -92.9752 l 123.9669,185.9504 Z"/></g></svg>