<?xml version="1.0" encoding="UTF-8"?>
<!DOCTYPE svg PUBLIC "-//W3C//DTD SVG 1.1//EN"
    "http://www.w3.org/Graphics/SVG/1.1/DTD/svg11.dtd"><svg xmlns="http://www.w3.org/2000/svg" viewBox="0.0 0.0 1000.0 426.2574595055413" height="426.2575" font-size="1" stroke-opacity="1" width="1000.0000" xmlns:xlink="http://www.w3.org/1999/xlink" stroke="rgb(0,0,0)" version="1.1"><defs></defs><g stroke-linecap="butt" fill="rgb(225,37,27)" stroke-miterlimit="10.0" stroke-width="0.0" fill-opacity="1.0" stroke-opacity="1.0" stroke-linejoin="miter" stroke="rgb(0,0,0)"><path d="M 863.4814,174.3781 h 55.0260 c 0.0000,-85.6056 -69.3971,-155.0027 -155.0027 -155.0027c -85.6056,-0.0000 -155.0027,69.3971 -155.0027 155.0027c -0.0000,85.6056 69.3971,155.0027 155.0027 155.0027c 85.6056,0.0000 155.0027,-69.3971 155.0027 -155.0027l -55.0260,-0.0000 c -0.0000,55.2156 -44.7611,99.9767 -99.9767 99.9767c -55.2156,-0.0000 -99.9767,-44.7611 -99.9767 -99.9767c 0.0000,-55.2156 44.7611,-99.9767 99.9767 -99.9767c 55.2156,0.0000 99.9767,44.7611 99.9767 99.9767Z"/></g><g stroke-linecap="butt" fill="rgb(0,15,159)" stroke-miterlimit="10.0" stroke-width="0.0" fill-opacity="1.0" stroke-opacity="1.0" stroke-linejoin="miter" stroke="rgb(0,0,0)"><path d="M 954.5455,205.3786 l -0.0000,-62.0011 h -382.0817 l -0.0000,62.0011 Z"/></g><g stroke-linecap="butt" fill="rgb(143,78,139)" stroke-miterlimit="10.0" stroke-width="0.0" fill-opacity="1.0" stroke-opacity="1.0" stroke-linejoin="miter" stroke="rgb(0,0,0)"><path d="M 427.7946,236.3791 l 41.3341,62.0011 h 103.3351 v -62.0011 Z"/></g><g stroke-linecap="butt" fill="rgb(143,78,139)" stroke-miterlimit="10.0" stroke-width="0.0" fill-opacity="1.0" stroke-opacity="1.0" stroke-linejoin="miter" stroke="rgb(0,0,0)"><path d="M 365.7935,143.3775 l 41.3341,62.0011 h 165.3362 v -62.0011 Z"/></g><g stroke-linecap="butt" fill="rgb(94,80,134)" stroke-miterlimit="10.0" stroke-width="0.0" fill-opacity="1.0" stroke-opacity="1.0" stroke-linejoin="miter" stroke="rgb(0,0,0)"><path d="M 298.6256,220.8789 l 124.0022,186.0033 h 93.0016 l -124.0022,-186.0033 Z"/></g><g stroke-linecap="butt" fill="rgb(94,80,134)" stroke-miterlimit="10.0" stroke-width="0.0" fill-opacity="1.0" stroke-opacity="1.0" stroke-linejoin="miter" stroke="rgb(0,0,0)"><path d="M 391.6273,220.8789 l -124.0022,186.0033 h -93.0016 l 124.0022,-186.0033 Z"/></g><g stroke-linecap="butt" fill="rgb(94,80,134)" stroke-miterlimit="10.0" stroke-width="0.0" fill-opacity="1.0" stroke-opacity="1.0" stroke-linejoin="miter" stroke="rgb(0,0,0)"><path d="M 391.6273,220.8789 l -124.0022,-186.0033 h -93.0016 l 124.0022,186.0033 Z"/></g><g stroke-linecap="butt" fill="rgb(69,58,98)" stroke-miterlimit="10.0" stroke-width="0.0" fill-opacity="1.0" stroke-opacity="1.0" stroke-linejoin="miter" stroke="rgb(0,0,0)"><path d="M 262.4583,220.8789 l -124.0022,186.0033 h -93.0016 l 124.0022,-186.0033 Z"/></g><g stroke-linecap="butt" fill="rgb(69,58,98)" stroke-miterlimit="10.0" stroke-width="0.0" fill-opacity="1.0" stroke-opacity="1.0" stroke-linejoin="miter" stroke="rgb(0,0,0)"><path d="M 262.4583,220.8789 l -124.0022,-186.0033 h -93.0016 l 124.0022,186.0033 Z"/></g></svg>