<?xml version="1.0" encoding="UTF-8"?>
<!DOCTYPE svg PUBLIC "-//W3C//DTD SVG 1.1//EN"
    "http://www.w3.org/Graphics/SVG/1.1/DTD/svg11.dtd"><svg xmlns="http://www.w3.org/2000/svg" viewBox="0.0 0.0 1000.0 531.9148936170212" height="531.9149" font-size="1" stroke-opacity="1" width="1000.0000" xmlns:xlink="http://www.w3.org/1999/xlink" stroke="rgb(0,0,0)" version="1.1"><defs><style type='text/css'>@font-face {font-family: johnston;src: url('new-johnston-medium-4.ttf');}</style></defs><g stroke-linecap="butt" fill="rgb(143,78,139)" stroke-miterlimit="10.0" stroke-width="0.0" fill-opacity="1.0" stroke-opacity="1.0" stroke-linejoin="miter" stroke="rgb(0,0,0)"><path d="M 522.5661,294.9710 l 51.5796,77.3694 h 380.3997 v -77.3694 Z"/></g><g stroke-linecap="butt" fill="rgb(225,37,27)" stroke-miterlimit="10.0" stroke-width="0.0" fill-opacity="1.0" stroke-opacity="1.0" stroke-linejoin="miter" stroke="rgb(0,0,0)"><path d="M 860.4126,217.6015 h 68.3430 c 0.0000,-106.8249 -86.5987,-193.4236 -193.4236 -193.4236c -106.8249,-0.0000 -193.4236,86.5987 -193.4236 193.4236c -0.0000,106.8249 86.5987,193.4236 193.4236 193.4236c 106.8249,0.0000 193.4236,-86.5987 193.4236 -193.4236l -68.3430,-0.0000 c -0.0000,69.0801 -56.0005,125.0806 -125.0806 125.0806c -69.0801,-0.0000 -125.0806,-56.0005 -125.0806 -125.0806c 0.0000,-69.0801 56.0005,-125.0806 125.0806 -125.0806c 69.0801,0.0000 125.0806,56.0005 125.0806 125.0806Z"/></g><g stroke-linecap="butt" fill="rgb(0,15,159)" stroke-miterlimit="10.0" stroke-width="0.0" fill-opacity="1.0" stroke-opacity="1.0" stroke-linejoin="miter" stroke="rgb(0,0,0)"><path d="M 445.1966,178.9168 l 51.5796,77.3694 h 457.7692 v -77.3694 Z"/></g><g stroke-linecap="butt" font-family="johnston" fill="rgb(255,255,255)" font-size="52.86911669890393px" stroke-miterlimit="10.0" stroke-width="0.0" fill-opacity="1.0" stroke-opacity="1.0" stroke-linejoin="miter" stroke="rgb(0,0,0)"><text transform="matrix(1.0000,0.0000,0.0000,1.0000,716.6344,221.4700)" dominant-baseline="middle" text-anchor="middle" stroke="none">LONDON HASKELL</text></g><g stroke-linecap="butt" fill="rgb(94,80,134)" stroke-miterlimit="10.0" stroke-width="0.0" fill-opacity="1.0" stroke-opacity="1.0" stroke-linejoin="miter" stroke="rgb(0,0,0)"><path d="M 361.3798,275.6286 l 154.7389,232.1083 h 116.0542 l -154.7389,-232.1083 Z"/></g><g stroke-linecap="butt" fill="rgb(94,80,134)" stroke-miterlimit="10.0" stroke-width="0.0" fill-opacity="1.0" stroke-opacity="1.0" stroke-linejoin="miter" stroke="rgb(0,0,0)"><path d="M 477.4339,275.6286 l -154.7389,232.1083 h -116.0542 l 154.7389,-232.1083 Z"/></g><g stroke-linecap="butt" fill="rgb(94,80,134)" stroke-miterlimit="10.0" stroke-width="0.0" fill-opacity="1.0" stroke-opacity="1.0" stroke-linejoin="miter" stroke="rgb(0,0,0)"><path d="M 477.4339,275.6286 l -154.7389,-232.1083 h -116.0542 l 154.7389,232.1083 Z"/></g><g stroke-linecap="butt" fill="rgb(69,58,98)" stroke-miterlimit="10.0" stroke-width="0.0" fill-opacity="1.0" stroke-opacity="1.0" stroke-linejoin="miter" stroke="rgb(0,0,0)"><path d="M 316.2476,275.6286 l -154.7389,232.1083 h -116.0542 l 154.7389,-232.1083 Z"/></g><g stroke-linecap="butt" fill="rgb(69,58,98)" stroke-miterlimit="10.0" stroke-width="0.0" fill-opacity="1.0" stroke-opacity="1.0" stroke-linejoin="miter" stroke="rgb(0,0,0)"><path d="M 316.2476,275.6286 l -154.7389,-232.1083 h -116.0542 l 154.7389,232.1083 Z"/></g></svg>