<?xml version="1.0" encoding="UTF-8"?>
<!DOCTYPE svg PUBLIC "-//W3C//DTD SVG 1.1//EN"
    "http://www.w3.org/Graphics/SVG/1.1/DTD/svg11.dtd"><svg xmlns="http://www.w3.org/2000/svg" viewBox="0.0 0.0 1000.0 551.4705882352941" height="551.4706" font-size="1" stroke-opacity="1" width="1000.0000" xmlns:xlink="http://www.w3.org/1999/xlink" stroke="rgb(0,0,0)" version="1.1"><defs></defs><g stroke-linecap="butt" fill="rgb(143,78,139)" stroke-miterlimit="10.0" stroke-width="0.0" fill-opacity="1.0" stroke-opacity="1.0" stroke-linejoin="miter" stroke="rgb(0,0,0)"><path d="M 540.1070,305.8155 l 53.4759,80.2139 h 360.9626 v -80.2139 Z"/></g><g stroke-linecap="butt" fill="rgb(225,37,27)" stroke-miterlimit="10.0" stroke-width="0.0" fill-opacity="1.0" stroke-opacity="1.0" stroke-linejoin="miter" stroke="rgb(0,0,0)"><path d="M 856.9519,225.6016 h 70.8556 c 0.0000,-110.7523 -89.7825,-200.5348 -200.5348 -200.5348c -110.7523,-0.0000 -200.5348,89.7825 -200.5348 200.5348c -0.0000,110.7523 89.7825,200.5348 200.5348 200.5348c 110.7523,0.0000 200.5348,-89.7825 200.5348 -200.5348l -70.8556,-0.0000 c -0.0000,71.6198 -58.0593,129.6791 -129.6791 129.6791c -71.6198,-0.0000 -129.6791,-58.0593 -129.6791 -129.6791c 0.0000,-71.6198 58.0593,-129.6791 129.6791 -129.6791c 71.6198,0.0000 129.6791,58.0593 129.6791 129.6791Z"/></g><g stroke-linecap="butt" fill="rgb(0,15,159)" stroke-miterlimit="10.0" stroke-width="0.0" fill-opacity="1.0" stroke-opacity="1.0" stroke-linejoin="miter" stroke="rgb(0,0,0)"><path d="M 459.8930,185.4947 l 53.4759,80.2139 h 441.1765 v -80.2139 Z"/></g><g stroke-linecap="butt" fill="rgb(94,80,134)" stroke-miterlimit="10.0" stroke-width="0.0" fill-opacity="1.0" stroke-opacity="1.0" stroke-linejoin="miter" stroke="rgb(0,0,0)"><path d="M 372.9947,285.7620 l 160.4278,240.6417 h 120.3209 l -160.4278,-240.6417 Z"/></g><g stroke-linecap="butt" fill="rgb(94,80,134)" stroke-miterlimit="10.0" stroke-width="0.0" fill-opacity="1.0" stroke-opacity="1.0" stroke-linejoin="miter" stroke="rgb(0,0,0)"><path d="M 493.3155,285.7620 l -160.4278,240.6417 h -120.3209 l 160.4278,-240.6417 Z"/></g><g stroke-linecap="butt" fill="rgb(94,80,134)" stroke-miterlimit="10.0" stroke-width="0.0" fill-opacity="1.0" stroke-opacity="1.0" stroke-linejoin="miter" stroke="rgb(0,0,0)"><path d="M 493.3155,285.7620 l -160.4278,-240.6417 h -120.3209 l 160.4278,240.6417 Z"/></g><g stroke-linecap="butt" fill="rgb(69,58,98)" stroke-miterlimit="10.0" stroke-width="0.0" fill-opacity="1.0" stroke-opacity="1.0" stroke-linejoin="miter" stroke="rgb(0,0,0)"><path d="M 326.2032,285.7620 l -160.4278,240.6417 h -120.3209 l 160.4278,-240.6417 Z"/></g><g stroke-linecap="butt" fill="rgb(69,58,98)" stroke-miterlimit="10.0" stroke-width="0.0" fill-opacity="1.0" stroke-opacity="1.0" stroke-linejoin="miter" stroke="rgb(0,0,0)"><path d="M 326.2032,285.7620 l -160.4278,-240.6417 h -120.3209 l 160.4278,240.6417 Z"/></g></svg>