<svg xmlns="http://www.w3.org/2000/svg" height="734.694" font-size="1" width="1000" stroke="#000">
    <path d="M517.007 483.302l12.368 18.553h30.922v-18.553zm-18.553-27.829l12.368 18.553h49.475v-18.553z" fill="#BBB" stroke="none"/>
    <path d="M476.809 478.664l37.106 55.659h27.829l-37.106-55.659z" fill="#999" stroke="none"/>
    <path d="M504.638 478.664l-37.106 55.659h-27.829l37.106-55.659zm0 0l-37.106-55.658h-27.829l37.106 55.658z" fill="#999" stroke="none"/>
    <path d="M467.533 478.664l-37.106 55.659h-27.83l37.106-55.659zm0 0l-37.106-55.658h-27.83l37.106 55.658z" fill="#666" stroke="none"/>
    <path d="M564.935 478.664l74.212-111.317h315.399l-74.212 111.317zm0 0l74.212 111.318h166.975l-74.211-111.318z" fill="#8F4E8B" stroke="none"/>
    <path d="M416.512 701.299l74.212-111.318h315.399L731.91 701.3z" fill="#8F4E8B" stroke="none"/>
    <path d="M45.455 701.299l222.634-333.952h166.976L212.43 701.299z" fill="#5E5086" stroke="none"/>
    <path d="M45.455 701.299l74.211-111.318h371.058L416.512 701.3z" fill="#5E5086" stroke="none"/>
    <path d="M435.065 367.347L212.43 33.395H45.455l222.634 333.952z" fill="#453A62" stroke="none"/>
    <path d="M583.488 256.03l-74.212-111.318h-389.61l74.211 111.318z" fill="#453A62" stroke="none"/>
    <path d="M657.7 367.347L435.064 33.395H268.089l222.634 333.952z" fill="#453A62" stroke="none"/>
</svg>
