<?xml version='1.0' ?>
<svg viewBox="0 0 1000 426.136364" xmlns="http://www.w3.org/2000/svg" xmlns:xlink="http://www.w3.org/1999/xlink" version="1.1" width="1000" height="426.1364">
  <path fill="#000F9F" d="M954.5455,205.3202 v-61.9835 h-382.2314 v61.9835 Z" />
  <path fill="#453A62" d="M262.3967,220.8161 l-123.9669,-185.9504 h-92.9752 l123.9669,185.9504 l-123.9669,185.9504 h92.9752 Z" />
  <path fill="#5E5086" d="M391.5289,220.8161 l-123.9669,-185.9504 h-92.9752 l123.9669,185.9504 l-123.9669,185.9504 h92.9752 Z" />
  <path fill="#5E5086" d="M298.5537,220.8161 l123.9669,185.9504 h92.9752 l-123.9669,-185.9504 Z" />
  <path fill="#8F4E8B" d="M365.7025,143.3368 l41.3223,61.9835 h165.2893 v-61.9835 Z" />
  <path fill="#8F4E8B" d="M427.686,236.312 l41.3223,61.9835 h103.3058 v-61.9835 Z" />
  <defs />
  <path fill="#E1251B" d="M863.6364,174.3285 h54.7521 c0,-85.5813 -69.3774,-154.9587 -154.9587,-154.9587 c-85.5813,0 -154.9587,69.3774 -154.9587,154.9587 c0,85.5813 69.3774,154.9587 154.9587,154.9587 c85.5813,0 154.9587,-69.3774 154.9587,-154.9587 l-54.7521,0 c0,55.3426 -44.864,100.2066 -100.2066,100.2066 c-55.3426,0 -100.2066,-44.864 -100.2066,-100.2066 c0,-55.3426 44.864,-100.2066 100.2066,-100.2066 c55.3426,0 100.2066,44.864 100.2066,100.2066 Z" />
</svg>
