<?xml version='1.0' ?>
<svg viewBox="0 0 1000 734.693878" xmlns="http://www.w3.org/2000/svg" xmlns:xlink="http://www.w3.org/1999/xlink" version="1.1" width="1000" height="734.6939">
  <path fill="#453A62" d="M657.6994,367.3469 l-222.6345,-333.9518 h-166.9759 l222.6345,333.9518 Z" />
  <path fill="#453A62" d="M583.4879,256.0297 l-74.2115,-111.3173 h-389.6104 l74.2115,111.3173 Z" />
  <path fill="#453A62" d="M435.0649,367.3469 l-222.6345,-333.9518 h-166.9759 l222.6345,333.9518 Z" />
  <path fill="#5E5086" d="M45.4545,701.2987 l74.2115,-111.3173 h371.0575 l-74.2115,111.3173 Z" />
  <path fill="#5E5086" d="M45.4545,701.2987 l222.6345,-333.9518 h166.9759 l-222.6345,333.9518 Z" />
  <path fill="#666666" d="M467.5325,478.6642 l-37.1058,-55.6586 h-27.8293 l37.1058,55.6586 l-37.1058,55.6586 h27.8293 Z" />
  <path fill="#8F4E8B" d="M564.9351,478.6642 l74.2115,111.3173 h-148.423 l-74.2115,111.3173 h315.3989 l74.2115,-111.3173 l-74.2115,-111.3172 h148.423 l74.2115,-111.3173 h-315.3989 Z" />
  <path fill="#999999" d="M504.6382,478.6642 l-37.1058,-55.6586 h-27.8293 l37.1058,55.6586 l-37.1058,55.6586 h27.8293 Z" />
  <path fill="#999999" d="M476.8089,478.6642 l37.1058,55.6586 h27.8293 l-37.1058,-55.6586 Z" />
  <path fill="#BBBBBB" d="M498.4539,455.4731 l12.3686,18.5529 h49.4743 v-18.5529 Z" />
  <path fill="#BBBBBB" d="M517.0068,483.3024 l12.3686,18.5529 h30.9215 v-18.5529 Z" />
  <defs />
</svg>
