<?xml version='1.0' ?>
<svg viewBox="0 0 1000 551.470588" xmlns="http://www.w3.org/2000/svg" xmlns:xlink="http://www.w3.org/1999/xlink" version="1.1" width="1000" height="551.4706">
  <path fill="#000F9F" d="M459.893,185.4947 l53.4759,80.2139 h441.1765 v-80.2139 Z" />
  <path fill="#453A62" d="M326.2032,285.762 l-160.4278,-240.6417 h-120.3209 l160.4278,240.6417 l-160.4278,240.6417 h120.3209 Z" />
  <path fill="#5E5086" d="M493.3155,285.762 l-160.4278,-240.6417 h-120.3209 l160.4278,240.6417 l-160.4278,240.6417 h120.3209 Z" />
  <path fill="#5E5086" d="M372.9947,285.762 l160.4278,240.6417 h120.3209 l-160.4278,-240.6417 Z" />
  <path fill="#8F4E8B" d="M540.107,305.8155 l53.4759,80.2139 h360.9626 v-80.2139 Z" />
  <defs />
  <path fill="#E1251B" d="M856.9519,225.6016 h70.8556 c0,-110.7523 -89.7825,-200.5348 -200.5348,-200.5348 c-110.7523,0 -200.5348,89.7825 -200.5348,200.5348 c0,110.7523 89.7825,200.5348 200.5348,200.5348 c110.7523,0 200.5348,-89.7825 200.5348,-200.5348 l-70.8556,0 c0,71.6198 -58.0593,129.6791 -129.6791,129.6791 c-71.6198,0 -129.6791,-58.0593 -129.6791,-129.6791 c0,-71.6198 58.0593,-129.6791 129.6791,-129.6791 c71.6198,0 129.6791,58.0593 129.6791,129.6791 Z" />
</svg>
