<?xml version='1.0' ?>
<svg viewBox="0 0 1000 531.914894" xmlns="http://www.w3.org/2000/svg" xmlns:xlink="http://www.w3.org/1999/xlink" version="1.1" width="1000" height="531.9149">
  <path fill="#000F9F" d="M445.1966,178.9168 l51.5796,77.3694 h457.7692 v-77.3694 Z" />
  <path fill="#453A62" d="M316.2476,275.6286 l-154.7389,-232.1083 h-116.0542 l154.7389,232.1083 l-154.7389,232.1083 h116.0542 Z" />
  <path fill="#5E5086" d="M477.4339,275.6286 l-154.7389,-232.1083 h-116.0542 l154.7389,232.1083 l-154.7389,232.1083 h116.0542 Z" />
  <path fill="#5E5086" d="M361.3798,275.6286 l154.7389,232.1083 h116.0542 l-154.7389,-232.1083 Z" />
  <path fill="#8F4E8B" d="M522.5661,294.971 l51.5796,77.3694 h380.3997 v-77.3694 Z" />
  <defs />
  <path fill="#E1251B" d="M860.4126,217.6015 h68.343 c0,-106.8249 -86.5987,-193.4236 -193.4236,-193.4236 c-106.8249,0 -193.4236,86.5987 -193.4236,193.4236 c0,106.8249 86.5987,193.4236 193.4236,193.4236 c106.8249,0 193.4236,-86.5987 193.4236,-193.4236 l-68.343,0 c0,69.0801 -56.0005,125.0806 -125.0806,125.0806 c-69.0801,0 -125.0806,-56.0005 -125.0806,-125.0806 c0,-69.0801 56.0005,-125.0806 125.0806,-125.0806 c69.0801,0 125.0806,56.0005 125.0806,125.0806 Z" />
</svg>
