<?xml version='1.0' ?>
<svg viewBox="0 0 1000 426.25746" xmlns="http://www.w3.org/2000/svg" xmlns:xlink="http://www.w3.org/1999/xlink" version="1.1" width="1000" height="426.2575">
  <path fill="#000F9F" d="M954.5455,205.3786 v-62.0011 h-382.0817 v62.0011 Z" />
  <path fill="#453A62" d="M262.4583,220.8789 l-124.0022,-186.0033 h-93.0016 l124.0022,186.0033 Z" />
  <path fill="#453A62" d="M262.4583,220.8789 l-124.0022,186.0033 h-93.0016 l124.0022,-186.0033 Z" />
  <path fill="#5E5086" d="M298.6257,220.8789 l-124.0022,-186.0033 h93.0016 l124.0022,186.0033 l124.0021,186.0033 h-93.0016 Z" />
  <path fill="#5E5086" d="M391.6273,220.8789 l-124.0022,186.0033 h-93.0016 l124.0022,-186.0033 Z" />
  <path fill="#8F4E8B" d="M365.7935,143.3775 l41.3341,62.0011 h165.3362 v-62.0011 Z" />
  <path fill="#8F4E8B" d="M427.7946,236.3791 l41.3341,62.0011 h103.3351 v-62.0011 Z" />
  <defs />
  <path fill="#E1251B" d="M863.4814,174.3781 h55.026 c0,-85.6056 -69.3971,-155.0027 -155.0027,-155.0027 c-85.6056,0 -155.0027,69.3971 -155.0027,155.0027 c0,85.6056 69.3971,155.0027 155.0027,155.0027 c85.6056,0 155.0027,-69.3971 155.0027,-155.0027 l-55.026,0 c0,55.2156 -44.7611,99.9767 -99.9767,99.9767 c-55.2156,0 -99.9767,-44.7611 -99.9767,-99.9767 c0,-55.2156 44.7611,-99.9767 99.9767,-99.9767 c55.2156,0 99.9767,44.7611 99.9767,99.9767 Z" />
</svg>
